<svg xmlns="http://www.w3.org/2000/svg" width="560" height="560" preserveAspectRatio="xMidYMid meet" version="1.0" viewBox="0 0 420 420"><metadata>Created by potrace 1.14, written by Peter Selinger 2001-2017</metadata><g fill="#000" stroke="none"><path d="M350 3495 l0 -355 350 0 350 0 0 -695 0 -695 -350 0 -350 0 0 -355 0 -355 350 0 350 0 0 -350 0 -350 355 0 355 0 0 350 0 350 345 0 345 0 0 -350 0 -350 355 0 355 0 0 350 0 350 350 0 350 0 0 355 0 355 -350 0 -350 0 0 695 0 695 350 0 350 0 0 355 0 355 -1755 0 -1755 0 0 -355z m2100 -1050 l0 -695 -345 0 -345 0 0 695 0 695 345 0 345 0 0 -695z" transform="translate(0.000000,420.000000) scale(0.100000,-0.100000)"/></g></svg>